<svg width="1140" height="1264" viewBox="0 0 1140 1264" fill="none" xmlns="http://www.w3.org/2000/svg">
<g clip-path="url(#clip0_356_205)">
<path opacity="0.5" d="M-283.374 1777.3L-381.056 430.923L833.78 1019.52L-283.374 1777.3Z" stroke="#FFD000" stroke-width="1.77534"/>
<path opacity="0.5" d="M-283.374 1777.3L-381.056 430.923L833.78 1019.52L-283.374 1777.3Z" stroke="#FFD000" stroke-width="1.77534"/>
<path opacity="0.5" d="M-238.477 1684.63L-323.253 516.138L731.081 1026.97L-238.477 1684.63Z" stroke="#FFD000" stroke-width="1.77534"/>
<path opacity="0.5" d="M-197.45 1599.95L-270.434 594.007L637.234 1033.78L-197.45 1599.95Z" stroke="#FFD000" stroke-width="1.77534"/>
<path opacity="0.5" d="M-157.198 1516.87L-218.611 670.406L545.159 1040.46L-157.198 1516.87Z" stroke="#FFD000" stroke-width="1.77534"/>
<path opacity="0.5" d="M-115.397 1430.6L-164.794 749.744L449.542 1047.39L-115.397 1430.6Z" stroke="#FFD000" stroke-width="1.77534"/>
<path opacity="0.5" d="M-77.4667 1352.31L-115.961 821.736L362.779 1053.69L-77.4667 1352.31Z" stroke="#FFD000" stroke-width="1.77534"/>
<path opacity="0.5" d="M-48.0515 1291.6L-78.0904 877.567L295.493 1058.57L-48.0515 1291.6Z" stroke="#FFD000" stroke-width="1.77534"/>
<path opacity="0.5" d="M-18.6363 1230.89L-40.2198 933.397L228.206 1063.45L-18.6363 1230.89Z" stroke="#FFD000" stroke-width="1.77534"/>
<path opacity="0.5" d="M10.0048 1171.77L-3.34583 987.759L162.691 1068.2L10.0048 1171.77Z" stroke="#FFD000" stroke-width="1.77534"/>
<path opacity="0.5" d="M30.9054 1128.64L23.5625 1027.43L114.883 1071.67L30.9054 1128.64Z" stroke="#FFD000" stroke-width="1.77534"/>
</g>
<defs>
<clipPath id="clip0_356_205">
<rect width="1560.52" height="1562.3" fill="white" transform="translate(-1028.51 867.956) rotate(-34.1496)"/>
</clipPath>
</defs>
</svg>
